<?xml version="1.0" encoding="utf-8"?>
<!-- Generator: Adobe Illustrator 22.0.1, SVG Export Plug-In . SVG Version: 6.00 Build 0)  -->
<svg version="1.1" id="Layer_1" xmlns="http://www.w3.org/2000/svg" xmlns:xlink="http://www.w3.org/1999/xlink" x="0px" y="0px"
	 viewBox="0 0 432 432" style="enable-background:new 0 0 432 432;" xml:space="preserve">
<style type="text/css">
	.st0{fill:#FFFFFF;}
	.st1{fill:#4A5056;}
</style>
<path class="st0" d="M341.6,284.5c-28.5,30.8-64.5,46.9-106,52.1c-32.2,4-63.5,0.1-94-10.1c-6.6-2.2-11.6-1.6-17.7,2.2
	c-14,8.7-28.7,16.4-43.2,24.4c-1.8,1-4,1.4-7.8,2.7c3.8-7.8,7-13.7,9.6-19.9c3.7-8.8,6.8-17.8,10.6-26.6c2-4.5,0.9-7.4-2.1-10.9
	c-9.8-11.9-20.5-23.3-28.4-36.4c-22.9-37.5-15.4-86.2,15.6-118.1c33.8-34.8,75.6-50.7,123.5-52.3c43.8-1.4,84.4,8.3,119.9,35.2
	c20.4,15.5,36.6,34.1,43.9,59.2C376.2,223.4,367.5,256.5,341.6,284.5z"/>
<path class="st1" d="M403.5,189.7c-5-26.9-17.2-50.1-36.5-69.6c-3.5-3.5-3.8-6.5-2.1-11.3c8.7-24,21.4-45.6,37.7-65.2
	c1.7-2.1,2.5-5.9,1.9-8.5c-0.3-1.4-4.5-3-6.7-2.8c-10.6,0.9-21.3,1.6-31.8,3.7c-25.2,5-47.5,16.4-68.3,31.2
	c-2.1,1.5-5.9,2.3-8.3,1.4c-26-9.1-52.8-13.3-78.6-12.9c-4.9,0-8.1-0.1-11.3,0c-3.2,0.1-6.3,0.5-9.5,0.7
	c-53.8,3.3-99.8,23.8-137.4,62.5c-25.9,26.7-39.5,58.8-39.4,95.8c0.1,34.4,11.9,64.8,35.2,90.5c3.4,3.8,5.4,7.4,2.5,13.2
	c-8.6,17.7-18.6,34.3-32,48.8c-5.9,6.4-7.5,13.3-3.8,21.2c3.5,7.5,9.9,10.7,17.8,10.1c10.9-0.8,21.8-1.6,32.5-3.6
	c24.6-4.6,47.1-14.8,68-28.6c2.1-1.4,5.7-1.3,8.4-0.8c10.9,2.1,21.6,5.2,32.6,6.9c9.4,1.5,19,1.8,28.6,2c11.1,0.2,22.2,0.3,33.2-0.6
	c7.6-0.6,15.1-2.9,22.7-4.5c9-1.9,18.6-2.6,26.9-6.2c16.1-7,32.5-14.2,47-24c14.9-10.1,28.7-22.3,41-35.5
	c12.8-13.7,20.9-30.7,26.4-48.9C406.8,233.4,407.5,211.6,403.5,189.7z M341.6,284.5c-28.5,30.8-64.5,46.9-106,52.1
	c-32.2,4-63.5,0.1-94-10.1c-6.6-2.2-11.6-1.6-17.7,2.2c-14,8.7-28.7,16.4-43.2,24.5c-1.8,1-4,1.4-7.9,2.7c3.8-7.8,7-13.7,9.7-19.9
	c3.7-8.8,6.7-17.8,10.6-26.6c2-4.5,0.9-7.4-2.1-10.9c-9.8-11.9-20.5-23.3-28.4-36.4c-22.9-37.5-15.4-86.2,15.6-118.1
	c33.8-34.8,75.6-50.7,123.5-52.3c43.8-1.4,84.4,8.3,119.9,35.2c20.4,15.4,36.6,34.1,43.9,59.2C376.2,223.4,367.5,256.4,341.6,284.5z
	 M170.5,189.3v50.9c0,7.8-6.3,14.2-14.2,14.2h-49.5c-7.8,0-14.2-6.3-14.2-14.2v-50.9c0-7.8,6.3-14.2,14.2-14.2h49.5
	C164.2,175.2,170.5,181.5,170.5,189.3z M210.8,193.2v43.6c0,4.8-2.9,8.8-7,10.6c-2.3,1-4.9,0.5-6.9-0.9l-20.2-14.6v-32.8l20.4-15.6
	c1.9-1.4,4.4-1.8,6.5-1C207.8,184.2,210.8,188.4,210.8,193.2z M302.6,222.6c1.7,1.7,0.5,4.5-1.9,4.5h-18.2c-1.9,0-3.2,2-2.4,3.7
	l12.2,26.6c0.6,1.3,0,2.9-1.4,3.5l-14.2,6.1c-1.4,0.6-2.9-0.1-3.5-1.4l-9.8-24c-0.7-1.7-2.9-2.2-4.3-0.9l-15.9,15
	c-1.7,1.6-4.5,0.4-4.4-2l1.2-87.3c0-2.3,2.9-3.5,4.5-1.8L302.6,222.6z"/>
</svg>
